<?xml version="1.0" standalone="no"?><!-- Generator: Adobe Fireworks CS6, Export SVG Extension by Aaron Beall (http://fireworks.abeall.com) . Version: 0.6.1  --><!DOCTYPE svg PUBLIC "-//W3C//DTD SVG 1.1//EN" "http://www.w3.org/Graphics/SVG/1.1/DTD/svg11.dtd"><svg id="flight-instrument.fw-Page%201" viewBox="0 0 70 2200" style="background-color:#ffffff00" version="1.1"	xmlns="http://www.w3.org/2000/svg" xmlns:xlink="http://www.w3.org/1999/xlink" xml:space="preserve"	x="0px" y="0px" width="70px" height="2200px">	<g id="Layer_1_1">		<g>			<path d="M 66.1787 1302.1553 L 66.1787 1307.6348 L 54.708 1307.6348 L 54.708 1307.6348 " stroke="#ffffff" stroke-width="1" fill="none"/>			<path d="M 3.5 1302.1553 L 3.5 1307.6348 L 14.9712 1307.6348 L 14.9712 1307.6348 " stroke="#ffffff" stroke-width="1" fill="none"/>			<path d="M 25.0239 1255.5654 L 44.6553 1255.5654 L 44.6553 1255.5654 " stroke="#ffffff" stroke-width="1" fill="none"/>			<path d="M 25.0239 1359.0811 L 44.6553 1359.0811 L 44.6553 1359.0811 " stroke="#ffffff" stroke-width="1" fill="none"/>			<path d="M 66.1787 1405.6709 L 66.1787 1411.1514 L 54.708 1411.1514 L 54.708 1411.1514 " stroke="#ffffff" stroke-width="1" fill="none"/>			<path d="M 3.5 1405.6709 L 3.5 1411.1514 L 14.9712 1411.1514 L 14.9712 1411.1514 " stroke="#ffffff" stroke-width="1" fill="none"/>			<path d="M 25.0239 1462.5967 L 44.6553 1462.5967 L 44.6553 1462.5967 " stroke="#ffffff" stroke-width="1" fill="none"/>			<path d="M 66.1787 1509.1875 L 66.1787 1514.667 L 54.708 1514.667 L 54.708 1514.667 " stroke="#ffffff" stroke-width="1" fill="none"/>			<path d="M 3.5 1509.1875 L 3.5 1514.667 L 14.9712 1514.667 L 14.9712 1514.667 " stroke="#ffffff" stroke-width="1" fill="none"/>			<path d="M 25.0239 1566.1133 L 44.6553 1566.1133 L 44.6553 1566.1133 " stroke="#ffffff" stroke-width="1" fill="none"/>			<path d="M 66.1787 1612.7031 L 66.1787 1618.1826 L 54.708 1618.1826 L 54.708 1618.1826 " stroke="#ffffff" stroke-width="1" fill="none"/>			<path d="M 3.5 1612.7031 L 3.5 1618.1826 L 14.9712 1618.1826 L 14.9712 1618.1826 " stroke="#ffffff" stroke-width="1" fill="none"/>			<path d="M 25.0239 1669.6289 L 44.6553 1669.6289 L 44.6553 1669.6289 " stroke="#ffffff" stroke-width="1" fill="none"/>			<path d="M 66.1787 1716.2188 L 66.1787 1721.6992 L 54.708 1721.6992 L 54.708 1721.6992 " stroke="#ffffff" stroke-width="1" fill="none"/>			<path d="M 3.5 1716.2188 L 3.5 1721.6992 L 14.9712 1721.6992 L 14.9712 1721.6992 " stroke="#ffffff" stroke-width="1" fill="none"/>			<path d="M 25.0239 1773.1445 L 44.6553 1773.1445 L 44.6553 1773.1445 " stroke="#ffffff" stroke-width="1" fill="none"/>			<path d="M 66.1787 1819.7354 L 66.1787 1825.2148 L 54.708 1825.2148 L 54.708 1825.2148 " stroke="#ffffff" stroke-width="1" fill="none"/>			<path d="M 3.5 1819.7354 L 3.5 1825.2148 L 14.9712 1825.2148 L 14.9712 1825.2148 " stroke="#ffffff" stroke-width="1" fill="none"/>			<path d="M 25.0239 1876.6611 L 44.6553 1876.6611 L 44.6553 1876.6611 " stroke="#ffffff" stroke-width="1" fill="none"/>			<path d="M 66.1787 1923.251 L 66.1787 1928.7314 L 54.708 1928.7314 L 54.708 1928.7314 " stroke="#ffffff" stroke-width="1" fill="none"/>			<path d="M 3.5 1923.251 L 3.5 1928.7314 L 14.9712 1928.7314 L 14.9712 1928.7314 " stroke="#ffffff" stroke-width="1" fill="none"/>			<path d="M 25.0239 1980.1768 L 44.6553 1980.1768 L 44.6553 1980.1768 " stroke="#ffffff" stroke-width="1" fill="none"/>			<path d="M 66.1787 2026.7666 L 66.1787 2032.2471 L 54.708 2032.2471 L 54.708 2032.2471 " stroke="#ffffff" stroke-width="1" fill="none"/>			<path d="M 3.5 2026.7666 L 3.5 2032.2471 L 14.9712 2032.2471 L 14.9712 2032.2471 " stroke="#ffffff" stroke-width="1" fill="none"/>			<path d="M 25.0239 2083.6934 L 44.6553 2083.6934 L 44.6553 2083.6934 " stroke="#ffffff" stroke-width="1" fill="none"/>			<path d="M 66.1787 2130.2832 L 66.1787 2135.7627 L 54.708 2135.7627 L 54.708 2135.7627 " stroke="#ffffff" stroke-width="1" fill="none"/>			<path d="M 3.5 2130.2832 L 3.5 2135.7627 L 14.9712 2135.7627 L 14.9712 2135.7627 " stroke="#ffffff" stroke-width="1" fill="none"/>			<path d="M 25.0239 2187.209 L 44.6553 2187.209 L 44.6553 2187.209 " stroke="#ffffff" stroke-width="1" fill="none"/>			<path d="M 66.1787 1198.6387 L 66.1787 1204.1191 L 54.708 1204.1191 L 54.708 1204.1191 " stroke="#ffffff" stroke-width="1" fill="none"/>			<path d="M 3.5 1198.6387 L 3.5 1204.1191 L 14.9712 1204.1191 L 14.9712 1204.1191 " stroke="#ffffff" stroke-width="1" fill="none"/>			<path d="M 25.0239 1152.0488 L 44.6553 1152.0488 L 44.6553 1152.0488 " stroke="#ffffff" stroke-width="1" fill="none"/>			<path d="M 66.1787 1001.1299 L 66.1787 995.6489 L 54.708 995.6489 L 54.708 995.6489 " stroke="#ffffff" stroke-width="1" fill="none"/>			<path d="M 3.5 1001.1299 L 3.5 995.6489 L 14.9712 995.6489 L 14.9712 995.6489 " stroke="#ffffff" stroke-width="1" fill="none"/>			<path d="M 3.5 1099.166 L 19.9712 1099.166 L 19.9712 1099.166 " stroke="#ffffff" stroke-width="1" fill="none"/>			<path d="M 25.0239 1048.5332 L 44.6553 1048.5332 L 44.6553 1048.5332 " stroke="#ffffff" stroke-width="1" fill="none"/>			<path d="M 66.1787 1099.166 L 49.708 1099.166 L 49.708 1099.166 " stroke="#ffffff" stroke-width="1" fill="none"/>			<path d="M 66.3398 897.6128 L 66.3398 892.1333 L 54.8682 892.1333 L 54.8682 892.1333 " stroke="#ffffff" stroke-width="1" fill="none"/>			<path d="M 3.6606 897.6128 L 3.6606 892.1333 L 15.1313 892.1333 L 15.1313 892.1333 " stroke="#ffffff" stroke-width="1" fill="none"/>			<path d="M 25.1846 841.5 L 44.8154 841.5 L 44.8154 841.5 " stroke="#ffffff" stroke-width="1" fill="none"/>			<path d="M 25.1846 945.0171 L 44.8154 945.0171 L 44.8154 945.0171 " stroke="#ffffff" stroke-width="1" fill="none"/>			<path d="M 66.3398 794.0957 L 66.3398 788.6162 L 54.8682 788.6162 L 54.8682 788.6162 " stroke="#ffffff" stroke-width="1" fill="none"/>			<path d="M 3.6606 794.0957 L 3.6606 788.6162 L 15.1313 788.6162 L 15.1313 788.6162 " stroke="#ffffff" stroke-width="1" fill="none"/>			<path d="M 25.1846 737.9829 L 44.8154 737.9829 L 44.8154 737.9829 " stroke="#ffffff" stroke-width="1" fill="none"/>			<path d="M 66.3398 690.5791 L 66.3398 685.0991 L 54.8682 685.0991 L 54.8682 685.0991 " stroke="#ffffff" stroke-width="1" fill="none"/>			<path d="M 3.6606 690.5791 L 3.6606 685.0991 L 15.1313 685.0991 L 15.1313 685.0991 " stroke="#ffffff" stroke-width="1" fill="none"/>			<path d="M 25.1846 634.4658 L 44.8154 634.4658 L 44.8154 634.4658 " stroke="#ffffff" stroke-width="1" fill="none"/>			<path d="M 66.3398 587.062 L 66.3398 581.582 L 54.8682 581.582 L 54.8682 581.582 " stroke="#ffffff" stroke-width="1" fill="none"/>			<path d="M 3.6606 587.062 L 3.6606 581.582 L 15.1313 581.582 L 15.1313 581.582 " stroke="#ffffff" stroke-width="1" fill="none"/>			<path d="M 25.1846 530.9487 L 44.8154 530.9487 L 44.8154 530.9487 " stroke="#ffffff" stroke-width="1" fill="none"/>			<path d="M 66.3398 483.5449 L 66.3398 478.0649 L 54.8682 478.0649 L 54.8682 478.0649 " stroke="#ffffff" stroke-width="1" fill="none"/>			<path d="M 3.6606 483.5449 L 3.6606 478.0649 L 15.1313 478.0649 L 15.1313 478.0649 " stroke="#ffffff" stroke-width="1" fill="none"/>			<path d="M 25.1846 427.4321 L 44.8154 427.4321 L 44.8154 427.4321 " stroke="#ffffff" stroke-width="1" fill="none"/>			<path d="M 66.3398 380.0278 L 66.3398 374.5479 L 54.8682 374.5479 L 54.8682 374.5479 " stroke="#ffffff" stroke-width="1" fill="none"/>			<path d="M 3.6606 380.0278 L 3.6606 374.5479 L 15.1313 374.5479 L 15.1313 374.5479 " stroke="#ffffff" stroke-width="1" fill="none"/>			<path d="M 25.1846 323.915 L 44.8154 323.915 L 44.8154 323.915 " stroke="#ffffff" stroke-width="1" fill="none"/>			<path d="M 66.3398 276.5107 L 66.3398 271.0308 L 54.8682 271.0308 L 54.8682 271.0308 " stroke="#ffffff" stroke-width="1" fill="none"/>			<path d="M 3.6606 276.5107 L 3.6606 271.0308 L 15.1313 271.0308 L 15.1313 271.0308 " stroke="#ffffff" stroke-width="1" fill="none"/>			<path d="M 25.1846 220.3979 L 44.8154 220.3979 L 44.8154 220.3979 " stroke="#ffffff" stroke-width="1" fill="none"/>			<path d="M 66.3398 172.9937 L 66.3398 167.5137 L 54.8682 167.5137 L 54.8682 167.5137 " stroke="#ffffff" stroke-width="1" fill="none"/>			<path d="M 3.6606 172.9937 L 3.6606 167.5137 L 15.1313 167.5137 L 15.1313 167.5137 " stroke="#ffffff" stroke-width="1" fill="none"/>			<path d="M 25.1846 116.8809 L 44.8154 116.8809 L 44.8154 116.8809 " stroke="#ffffff" stroke-width="1" fill="none"/>			<path d="M 66.3398 69.4766 L 66.3398 63.9971 L 54.8682 63.9971 L 54.8682 63.9971 " stroke="#ffffff" stroke-width="1" fill="none"/>			<path d="M 3.6606 69.4766 L 3.6606 63.9971 L 15.1313 63.9971 L 15.1313 63.9971 " stroke="#ffffff" stroke-width="1" fill="none"/>			<path d="M 25.1846 13.3638 L 44.8154 13.3638 L 44.8154 13.3638 " stroke="#ffffff" stroke-width="1" fill="none"/>			<path d="M 25.1846 841.5 L 44.8154 841.5 L 44.8154 841.5 " stroke="#ffffff" stroke-width="1" fill="none"/>		</g>		<g>			<text x="22" y="1311" width="26" fill="#ffffff" style="font-size: 18.2px; color: #ffffff; font-family: Courier; text-align: center; "><tspan style="font-size: 18.200001px; "><![CDATA[20]]></tspan></text>			<text x="22" y="1415" width="26" fill="#ffffff" style="font-size: 18.2px; color: #ffffff; font-family: Courier; text-align: center; "><tspan style="font-size: 18.200001px; "><![CDATA[30]]></tspan></text>			<text x="22" y="1518" width="26" fill="#ffffff" style="font-size: 18.2px; color: #ffffff; font-family: Courier; text-align: center; "><tspan style="font-size: 18.200001px; "><![CDATA[40]]></tspan></text>			<text x="22" y="1622" width="26" fill="#ffffff" style="font-size: 18.2px; color: #ffffff; font-family: Courier; text-align: center; "><tspan style="font-size: 18.200001px; "><![CDATA[50]]></tspan></text>			<text x="22" y="1725" width="26" fill="#ffffff" style="font-size: 18.2px; color: #ffffff; font-family: Courier; text-align: center; "><tspan style="font-size: 18.200001px; "><![CDATA[60]]></tspan></text>			<text x="22" y="1829" width="26" fill="#ffffff" style="font-size: 18.2px; color: #ffffff; font-family: Courier; text-align: center; "><tspan style="font-size: 18.200001px; "><![CDATA[70]]></tspan></text>			<text x="22" y="1932" width="26" fill="#ffffff" style="font-size: 18.2px; color: #ffffff; font-family: Courier; text-align: center; "><tspan style="font-size: 18.200001px; "><![CDATA[80]]></tspan></text>			<text x="22" y="2036" width="26" fill="#ffffff" style="font-size: 18.2px; color: #ffffff; font-family: Courier; text-align: center; "><tspan style="font-size: 18.200001px; "><![CDATA[90]]></tspan></text>			<text x="16" y="2139" width="38" fill="#ffffff" style="font-size: 18.2px; color: #ffffff; font-family: Courier; text-align: center; "><tspan style="font-size: 18.200001px; "><![CDATA[100]]></tspan></text>			<text x="22" y="1207" width="26" fill="#ffffff" style="font-size: 18.2px; color: #ffffff; font-family: Courier; text-align: center; "><tspan style="font-size: 18.200001px; "><![CDATA[10]]></tspan></text>			<text x="21" y="1000" width="26" fill="#ffffff" style="font-size: 18.2px; color: #ffffff; font-family: Courier; text-align: center; "><tspan style="font-size: 18.200001px; "><![CDATA[10]]></tspan></text>			<text x="27" y="1101" width="16" fill="#ffffff" style="font-size: 18.2px; color: #ffffff; font-family: Courier; text-align: center; "><tspan style="font-size: 18.200001px; "><![CDATA[.]]></tspan></text>			<text x="22" y="897" width="26" fill="#ffffff" style="font-size: 18.2px; color: #ffffff; font-family: Courier; text-align: center; "><tspan style="font-size: 18.200001px; "><![CDATA[20]]></tspan></text>			<text x="22" y="794" width="26" fill="#ffffff" style="font-size: 18.2px; color: #ffffff; font-family: Courier; text-align: center; "><tspan style="font-size: 18.200001px; "><![CDATA[30]]></tspan></text>			<text x="22" y="690" width="26" fill="#ffffff" style="font-size: 18.2px; color: #ffffff; font-family: Courier; text-align: center; "><tspan style="font-size: 18.200001px; "><![CDATA[40]]></tspan></text>			<text x="22" y="587" width="26" fill="#ffffff" style="font-size: 18.2px; color: #ffffff; font-family: Courier; text-align: center; "><tspan style="font-size: 18.200001px; "><![CDATA[50]]></tspan></text>			<text x="22" y="483" width="26" fill="#ffffff" style="font-size: 18.2px; color: #ffffff; font-family: Courier; text-align: center; "><tspan style="font-size: 18.200001px; "><![CDATA[60]]></tspan></text>			<text x="22" y="380" width="26" fill="#ffffff" style="font-size: 18.2px; color: #ffffff; font-family: Courier; text-align: center; "><tspan style="font-size: 18.200001px; "><![CDATA[70]]></tspan></text>			<text x="22" y="276" width="26" fill="#ffffff" style="font-size: 18.2px; color: #ffffff; font-family: Courier; text-align: center; "><tspan style="font-size: 18.200001px; "><![CDATA[80]]></tspan></text>			<text x="22" y="173" width="26" fill="#ffffff" style="font-size: 18.2px; color: #ffffff; font-family: Courier; text-align: center; "><tspan style="font-size: 18.200001px; "><![CDATA[90]]></tspan></text>			<text x="16" y="69" width="38" fill="#ffffff" style="font-size: 18.2px; color: #ffffff; font-family: Courier; text-align: center; "><tspan style="font-size: 18.200001px; "><![CDATA[100]]></tspan></text>		</g>	</g></svg>