<?xml version="1.0" standalone="no"?><!-- Generator: Adobe Fireworks CS6, Export SVG Extension by Aaron Beall (http://fireworks.abeall.com) . Version: 0.6.1  --><!DOCTYPE svg PUBLIC "-//W3C//DTD SVG 1.1//EN" "http://www.w3.org/Graphics/SVG/1.1/DTD/svg11.dtd"><svg id="sprite.fw-Page%201" viewBox="0 0 445 338" style="background-color:#ffffff00" version="1.1"	xmlns="http://www.w3.org/2000/svg" xmlns:xlink="http://www.w3.org/1999/xlink" xml:space="preserve"	x="0px" y="0px" width="445px" height="338px">	<g id="Layer_1_1">		<path d="M 160.9287 146.4082 C 160.9287 140.5088 156.7622 135.2285 149.3779 135.2285 C 141.9941 135.2285 137.7451 140.4678 137.7451 146.6968 C 137.7451 152.5542 142.0762 157.7114 149.3779 157.7114 C 154.3687 157.7114 158.0811 155.3179 159.7739 151.936 L 154.1631 150.3682 C 153.5444 151.936 151.5229 152.9673 149.5835 152.9673 C 147.1919 152.9673 144.9648 151.3999 144.7573 148.5122 L 160.7622 148.5122 C 160.8462 147.9756 160.9287 147.1919 160.9287 146.4082 ZM 144.6343 144.4277 C 144.8809 141.7466 146.7378 139.9727 149.2959 139.9727 C 151.8125 139.9727 153.709 141.7056 153.9575 144.4277 L 144.6343 144.4277 Z" fill="#ffffff"/>		<path d="M 144.5356 290.167 C 144.5356 286.2178 141.7461 282.6826 136.8027 282.6826 C 131.8589 282.6826 129.0146 286.1899 129.0146 290.3604 C 129.0146 294.2817 131.9141 297.7344 136.8027 297.7344 C 140.1436 297.7344 142.6294 296.1318 143.7622 293.8677 L 140.0059 292.8184 C 139.5918 293.8677 138.2388 294.5586 136.9404 294.5586 C 135.3389 294.5586 133.8481 293.5088 133.709 291.5757 L 144.4243 291.5757 C 144.4805 291.2168 144.5356 290.6919 144.5356 290.167 ZM 133.6265 288.8413 C 133.7915 287.0464 135.0352 285.8584 136.7476 285.8584 C 138.4326 285.8584 139.7021 287.0186 139.8682 288.8413 L 133.6265 288.8413 Z" fill="#11093d"/>		<path d="M 445 338 L 0 338 L 0 0 L 445 0 L 445 338 Z" fill="none"/>		<g>			<path d="M 77.6875 70.314 L 82.583 70.314 L 86.2622 62.8853 L 81.6357 62.8853 L 77.6875 70.314 ZM 92.0835 51.1221 L 87.4482 51.1221 L 83.6851 58.7524 L 88.2939 58.7583 L 92.0835 51.1221 ZM 97.896 39.3623 L 93.2642 39.3623 L 89.5068 46.9893 L 94.103 46.9956 L 97.896 39.3623 ZM 103.7012 27.6025 L 99.0806 27.5996 L 95.3066 35.2207 L 99.9424 35.23 L 103.7012 27.6025 ZM 119.5596 27.5913 L 123.3726 35.2207 L 127.9937 35.2207 L 124.165 27.6025 L 119.5596 27.5913 ZM 133.9023 46.9893 L 130.0771 39.3687 L 125.4487 39.3687 L 129.2651 46.9893 L 133.9023 46.9893 ZM 139.7915 58.7524 L 135.9717 51.1221 L 131.3667 51.1162 L 135.1899 58.7524 L 139.7915 58.7524 ZM 145.8359 70.314 L 141.8696 62.8853 L 137.252 62.894 L 140.9668 70.2783 L 145.8359 70.314 ZM 106.6504 12.2866 L 101.1123 23.4624 L 105.7515 23.4624 L 111.5781 11.6489 L 117.4922 23.4624 L 122.0938 23.4727 L 116.9595 13.2241 L 174.0566 70.314 L 179.6802 70.314 L 111.3252 1.9639 L 42.981 70.314 L 48.6152 70.3154 L 106.6504 12.2866 ZM 34.0181 87.2119 L 37.3643 82.8398 L 97.2744 82.8398 L 109.2007 101.0649 C 109.5601 101.6133 110.1729 101.9463 110.8281 101.9463 C 110.8428 101.9463 110.855 101.9463 110.8677 101.9409 C 111.5391 101.9297 112.1533 101.5723 112.499 100.9937 L 123.3242 82.8398 L 185.1489 82.8398 L 188.6699 87.2476 C 189.3374 88.0884 190.5698 88.2173 191.4014 87.5513 C 192.2422 86.8843 192.3774 85.6572 191.708 84.8213 L 187.605 79.6826 C 187.2363 79.2178 186.6768 78.9487 186.0859 78.9487 L 122.2202 78.9487 C 121.5366 78.9487 120.8989 79.3115 120.5479 79.8999 L 110.7515 96.3296 L 99.9546 79.8311 C 99.5952 79.2827 98.9824 78.9487 98.3271 78.9487 L 36.4043 78.9487 C 35.7988 78.9487 35.2256 79.2329 34.8569 79.7148 L 30.9263 84.8516 C 30.2749 85.7046 30.4385 86.9253 31.2915 87.5806 C 32.1357 88.229 33.3608 88.0776 34.0181 87.2119 ZM 32.3198 133.5903 L 50.2085 133.5903 L 50.2085 128.0098 L 32.3198 128.0098 L 32.3198 133.5903 ZM 16.0625 148.8008 L 9.1323 128.0098 L 1.9971 128.0098 L 13.2168 157.2983 L 18.8687 157.2983 L 30.0063 128.0098 L 22.8691 128.0098 L 16.0625 148.8008 ZM 67.5288 139.8081 C 63.6089 138.7354 61.4224 138.1992 61.4224 136.2188 C 61.4224 134.6099 62.7007 133.7852 65.0117 133.7852 C 68.5171 133.7852 72.437 136.1367 72.8496 136.5908 L 75.7778 130.98 C 73.2197 129.4541 69.3838 127.7622 65.2173 127.7622 C 59.3599 127.7622 54.4102 131.104 54.4102 137.2915 C 54.4102 141.7056 56.9272 143.7271 62.3306 145.377 C 66.3721 146.6147 69.3838 147.1509 69.3838 149.3369 C 69.3838 150.7393 68.2295 151.5229 65.7949 151.5229 C 61.2993 151.5229 56.6787 148.6763 56.1426 148.0991 L 53.1719 153.9985 C 56.6377 156.2671 61.3813 157.6279 65.6714 157.6279 C 71.3232 157.6279 76.6855 155.3179 76.6855 148.6763 C 76.6855 143.2319 73.1377 141.3345 67.5288 139.8081 ZM 88.7334 151.647 L 83.6587 135.6416 L 76.895 135.6416 L 85.103 157.2983 C 84.4844 160.0615 83.6177 161.0928 82.2163 161.0928 C 81.4727 161.0928 80.3999 160.9287 79.2041 160.5566 L 79.2041 166.2085 C 80.3999 166.6621 81.6387 166.8271 82.8345 166.8271 C 86.6294 166.7861 89.7236 164.4346 90.9194 160.8042 L 99.2114 135.6416 L 93.064 135.6416 L 88.7334 151.647 ZM 110.8047 143.9746 C 107.7104 143.2319 106.7222 142.8188 106.7222 141.623 C 106.7222 140.3853 107.918 139.8081 109.5679 139.8081 C 111.5483 139.8081 113.5698 140.4678 116.251 141.9531 L 118.8501 137.7866 C 115.8384 136.1777 112.5796 135.2285 109.5679 135.2285 C 104.4111 135.2285 100.6162 138.1582 100.6162 142.5713 C 100.6162 145.8721 102.6787 147.2744 108.5366 148.8008 C 111.9185 149.6665 113.1157 150.1206 113.1157 151.2754 C 113.1157 152.4312 112.0435 153.0493 110.145 153.0493 C 107.6694 153.0493 104.9473 152.1416 102.1016 150.4917 L 99.5024 154.9468 C 102.1836 156.5967 106.7222 157.7114 110.3096 157.7114 C 115.9204 157.7114 119.4683 154.9878 119.4683 150.6982 C 119.4683 147.1089 117.1982 145.5835 110.8047 143.9746 ZM 132.3398 151.6885 C 131.2266 151.6885 130.4004 151.1108 130.4004 149.6665 L 130.4004 140.6328 L 134.8154 140.6328 L 134.8154 135.6416 L 130.4004 135.6416 L 130.4004 128.7524 L 123.8013 128.7524 L 123.8013 135.6416 L 121.0381 135.6416 L 121.0381 140.6328 L 123.8013 140.6328 L 123.8013 151.936 C 123.8013 156.1436 126.5645 157.7114 129.8232 157.7114 C 132.2168 157.7114 134.6494 156.9272 136.4653 156.1436 L 135.2266 150.9043 C 134.4028 151.2754 133.2891 151.6885 132.3398 151.6885 ZM 191.7031 135.2285 C 188.2783 135.2285 185.4741 136.7549 183.8652 139.436 C 183.2881 137.168 181.4307 135.2285 177.8843 135.2285 C 174.2539 135.2285 171.4497 136.6729 169.8389 139.272 L 169.8389 135.6416 L 163.8994 135.6416 L 163.8994 157.2983 L 170.5005 157.2983 L 170.5005 144.8818 C 171.2832 142.6123 173.1816 141.0449 174.9136 141.0449 C 176.6045 141.0449 177.7183 142.2827 177.7183 145.1294 L 177.7183 157.2983 L 184.3193 157.2983 L 184.3193 144.8818 C 185.061 142.6543 187.0005 141.0449 188.7324 141.0449 C 190.4233 141.0449 191.5386 142.2827 191.5386 145.1294 L 191.5386 157.2983 L 198.1382 157.2983 L 198.1382 143.4385 C 198.1382 139.8081 197.189 135.2285 191.7031 135.2285 ZM 212 143.9746 C 208.9058 143.2319 207.917 142.8188 207.917 141.623 C 207.917 140.3853 209.1128 139.8081 210.7627 139.8081 C 212.7432 139.8081 214.7651 140.4678 217.4463 141.9531 L 220.0449 137.7866 C 217.0332 136.1777 213.7749 135.2285 210.7627 135.2285 C 205.606 135.2285 201.8115 138.1582 201.8115 142.5713 C 201.8115 145.8721 203.874 147.2744 209.7314 148.8008 C 213.1133 149.6665 214.311 150.1206 214.311 151.2754 C 214.311 152.4312 213.2383 153.0493 211.3403 153.0493 C 208.8647 153.0493 206.1421 152.1416 203.2964 150.4917 L 200.6978 154.9468 C 203.3789 156.5967 207.917 157.7114 211.5044 157.7114 C 217.1157 157.7114 220.6636 154.9878 220.6636 150.6982 C 220.6636 147.1089 218.3936 145.5835 212 143.9746 ZM 44.6807 147.6919 C 44.6807 150.7842 42.9819 152.1567 41.2642 152.1567 C 39.5464 152.1567 37.8477 150.7842 37.8477 147.6919 L 37.8477 136.7368 L 32.3198 136.7368 L 32.3198 148.8477 C 32.3198 153.7876 36.3242 157.792 41.2642 157.792 C 46.2036 157.792 50.2085 153.7876 50.2085 148.8477 L 50.2085 136.7368 L 44.6807 136.7368 L 44.6807 147.6919 Z" fill="#ffffff"/>		</g>		<g>			<path d="M 254.376 146.6064 L 244.3574 136.04 L 246.7969 133.7256 L 254.4404 141.7861 L 262.1357 134.0898 L 264.5146 136.4688 L 254.376 146.6064 Z" fill="#4e69b2"/>		</g>		<g>			<path d="M 88.8066 239.2231 L 92.0845 239.2231 L 94.5474 234.25 L 91.4502 234.25 L 88.8066 239.2231 ZM 98.4448 226.3745 L 95.3413 226.3745 L 92.8223 231.4834 L 95.9077 231.4868 L 98.4448 226.3745 ZM 102.3364 218.5015 L 99.2354 218.5015 L 96.7197 223.6079 L 99.7969 223.6123 L 102.3364 218.5015 ZM 106.2227 210.6289 L 103.1289 210.627 L 100.6025 215.729 L 103.7061 215.7349 L 106.2227 210.6289 ZM 116.8398 210.6211 L 119.3921 215.729 L 122.4863 215.729 L 119.9229 210.6289 L 116.8398 210.6211 ZM 126.4419 223.6079 L 123.8809 218.5059 L 120.7822 218.5059 L 123.3374 223.6079 L 126.4419 223.6079 ZM 130.3848 231.4834 L 127.8271 226.3745 L 124.7441 226.3711 L 127.3037 231.4834 L 130.3848 231.4834 ZM 134.4312 239.2231 L 131.7759 234.25 L 128.6846 234.2559 L 131.1714 239.1992 L 134.4312 239.2231 ZM 108.1973 200.375 L 104.4893 207.8569 L 107.5952 207.8569 L 111.4961 199.9482 L 115.4556 207.8569 L 118.5361 207.8643 L 115.0991 201.0029 L 153.3242 239.2231 L 157.0894 239.2231 L 111.3267 193.4644 L 65.5713 239.2231 L 69.3438 239.2246 L 108.1973 200.375 ZM 59.5708 250.5361 L 61.811 247.6094 L 101.9204 247.6094 L 109.9048 259.8105 C 110.1455 260.1777 110.5557 260.4009 110.9941 260.4009 C 111.0039 260.4009 111.0122 260.4009 111.0205 260.397 C 111.4697 260.3896 111.8813 260.1504 112.1128 259.7627 L 119.3599 247.6094 L 160.7505 247.6094 L 163.1079 250.5601 C 163.5547 251.123 164.3799 251.2095 164.9365 250.7632 C 165.4995 250.3169 165.5898 249.4956 165.1416 248.9355 L 162.395 245.4956 C 162.1479 245.1846 161.7734 245.0044 161.3779 245.0044 L 118.6211 245.0044 C 118.1631 245.0044 117.7363 245.2471 117.5015 245.6411 L 110.9429 256.6406 L 103.7144 245.5952 C 103.4736 245.228 103.0635 245.0044 102.625 245.0044 L 61.1685 245.0044 C 60.7632 245.0044 60.3794 245.1943 60.1323 245.5171 L 57.501 248.9561 C 57.0649 249.5269 57.1748 250.3442 57.7456 250.7832 C 58.311 251.2173 59.1309 251.1157 59.5708 250.5361 ZM 58.4341 281.5859 L 70.4102 281.5859 L 70.4102 277.8496 L 58.4341 277.8496 L 58.4341 281.5859 ZM 47.5498 291.769 L 42.9106 277.8496 L 38.1333 277.8496 L 45.645 297.458 L 49.4287 297.458 L 56.8853 277.8496 L 52.1069 277.8496 L 47.5498 291.769 ZM 82.0059 285.7485 C 79.3813 285.0303 77.918 284.6714 77.918 283.3457 C 77.918 282.2686 78.7734 281.7163 80.3208 281.7163 C 82.6675 281.7163 85.292 283.2905 85.5684 283.5947 L 87.5283 279.8379 C 85.8159 278.8169 83.248 277.6841 80.4585 277.6841 C 76.5371 277.6841 73.2236 279.9214 73.2236 284.0635 C 73.2236 287.0186 74.9082 288.3721 78.5259 289.4766 C 81.2314 290.3052 83.248 290.6646 83.248 292.1279 C 83.248 293.0669 82.4751 293.5913 80.8452 293.5913 C 77.8354 293.5913 74.7422 291.6855 74.3828 291.2993 L 72.394 295.249 C 74.7144 296.7676 77.8906 297.6787 80.7622 297.6787 C 84.5464 297.6787 88.1362 296.1318 88.1362 291.6855 C 88.1362 288.0405 85.7607 286.7705 82.0059 285.7485 ZM 96.2017 293.6748 L 92.8047 282.959 L 88.2764 282.959 L 93.7715 297.458 C 93.3574 299.3076 92.7769 299.998 91.8389 299.998 C 91.3408 299.998 90.623 299.8887 89.8223 299.6396 L 89.8223 303.4229 C 90.623 303.7266 91.4521 303.8379 92.2529 303.8379 C 94.7935 303.8096 96.8647 302.2354 97.6655 299.8057 L 103.2168 282.959 L 99.1016 282.959 L 96.2017 293.6748 ZM 110.9785 288.5381 C 108.9067 288.0405 108.2451 287.7642 108.2451 286.9639 C 108.2451 286.1348 109.0459 285.7485 110.1504 285.7485 C 111.4761 285.7485 112.8296 286.1899 114.6245 287.1846 L 116.3647 284.395 C 114.3481 283.3179 112.1665 282.6826 110.1504 282.6826 C 106.6978 282.6826 104.1572 284.644 104.1572 287.5986 C 104.1572 289.8081 105.5381 290.7471 109.46 291.769 C 111.7241 292.3486 112.5259 292.6528 112.5259 293.4258 C 112.5259 294.1992 111.8076 294.6133 110.5366 294.6133 C 108.8794 294.6133 107.0571 294.0054 105.1519 292.9009 L 103.4116 295.8838 C 105.207 296.9883 108.2451 297.7344 110.647 297.7344 C 114.4033 297.7344 116.7788 295.9111 116.7788 293.0391 C 116.7788 290.6362 115.2588 289.6147 110.9785 288.5381 ZM 125.396 293.7021 C 124.6504 293.7021 124.0977 293.3154 124.0977 292.3486 L 124.0977 286.3008 L 127.0532 286.3008 L 127.0532 282.959 L 124.0977 282.959 L 124.0977 278.3472 L 119.6792 278.3472 L 119.6792 282.959 L 117.8291 282.959 L 117.8291 286.3008 L 119.6792 286.3008 L 119.6792 293.8677 C 119.6792 296.6846 121.5293 297.7344 123.7109 297.7344 C 125.3135 297.7344 126.9419 297.2095 128.1577 296.6846 L 127.3286 293.1772 C 126.7769 293.4258 126.0313 293.7021 125.396 293.7021 ZM 165.1387 282.6826 C 162.8457 282.6826 160.9683 283.7046 159.8911 285.4995 C 159.5044 283.981 158.2612 282.6826 155.8872 282.6826 C 153.4565 282.6826 151.5791 283.6494 150.501 285.3896 L 150.501 282.959 L 146.5244 282.959 L 146.5244 297.458 L 150.9434 297.458 L 150.9434 289.145 C 151.4678 287.626 152.7388 286.5767 153.8984 286.5767 C 155.0303 286.5767 155.7759 287.4053 155.7759 289.311 L 155.7759 297.458 L 160.1953 297.458 L 160.1953 289.145 C 160.6919 287.6543 161.9902 286.5767 163.1499 286.5767 C 164.2817 286.5767 165.0283 287.4053 165.0283 289.311 L 165.0283 297.458 L 169.4468 297.458 L 169.4468 288.1787 C 169.4468 285.7485 168.811 282.6826 165.1387 282.6826 ZM 178.7266 288.5381 C 176.6553 288.0405 175.9937 287.7642 175.9937 286.9639 C 175.9937 286.1348 176.7939 285.7485 177.8989 285.7485 C 179.2246 285.7485 180.5781 286.1899 182.373 287.1846 L 184.1128 284.395 C 182.0967 283.3179 179.915 282.6826 177.8989 282.6826 C 174.4463 282.6826 171.9058 284.644 171.9058 287.5986 C 171.9058 289.8081 173.2866 290.7471 177.208 291.769 C 179.4722 292.3486 180.2739 292.6528 180.2739 293.4258 C 180.2739 294.1992 179.5562 294.6133 178.2852 294.6133 C 176.6279 294.6133 174.8052 294.0054 172.9004 292.9009 L 171.1602 295.8838 C 172.9551 296.9883 175.9937 297.7344 178.3955 297.7344 C 182.1514 297.7344 184.5269 295.9111 184.5269 293.0391 C 184.5269 290.6362 183.0073 289.6147 178.7266 288.5381 ZM 66.7095 291.0264 C 66.7095 293.0967 65.5723 294.0156 64.4219 294.0156 C 63.272 294.0156 62.1348 293.0967 62.1348 291.0264 L 62.1348 283.6924 L 58.4341 283.6924 L 58.4341 291.8003 C 58.4341 295.1074 61.1152 297.7881 64.4219 297.7881 C 67.729 297.7881 70.4102 295.1074 70.4102 291.8003 L 70.4102 283.6924 L 66.7095 283.6924 L 66.7095 291.0264 Z" fill="#11093d"/>		</g>		<g>			<path d="M 244.6816 52.5107 L 240.4512 48.0488 L 262 27.6128 L 241.4053 7.019 L 245.7529 2.6714 L 270.8125 27.73 L 244.6816 52.5107 Z" fill="#bfbfbf"/>		</g>		<g>			<path d="M 251.2617 91.8486 L 249.2559 89.7334 L 255.4365 83.8711 L 249.5361 77.9707 L 251.5986 75.9082 L 259.6162 83.9258 L 251.2617 91.8486 Z" fill="#11093d"/>		</g>		<g>			<path d="M 419.168 53.5674 L 423.6055 53.5674 L 423.6055 66.2295 L 426.1465 66.2295 L 426.1465 53.5674 L 430.7158 53.5674 L 430.7158 51.2612 L 419.168 51.2612 L 419.168 53.5674 ZM 406.0566 59.7603 L 412.8267 59.7603 L 412.8267 57.4326 L 406.0566 57.4326 L 406.0566 53.5674 L 413.3159 53.5674 L 413.3159 51.2612 L 403.5156 51.2612 L 403.5156 66.2295 L 406.0566 66.2295 L 406.0566 59.7603 ZM 392.7446 60.6992 L 388.1997 60.6992 L 390.46 54.7202 L 392.7446 60.6992 ZM 389.2007 51.2612 L 383.3486 66.2295 L 386.0386 66.2295 L 387.2769 63.0483 L 393.6626 63.0483 L 394.9229 66.2295 L 397.5898 66.2295 L 391.7617 51.2612 L 389.2007 51.2612 ZM 371.7139 53.5674 C 374.041 53.5674 375.1948 54.4424 375.1948 56.1724 C 375.1948 57.9233 374.041 58.7983 371.7139 58.7983 L 368.876 58.7983 L 368.876 53.5674 L 371.7139 53.5674 ZM 378.1177 66.2295 L 374.6826 60.6992 C 376.625 59.9512 377.7358 58.3516 377.7358 56.1504 C 377.7358 53.0776 375.5596 51.2612 372.0356 51.2612 L 366.335 51.2612 L 366.335 66.2295 L 368.876 66.2295 L 368.876 61.1274 L 371.9697 61.1274 L 375.1099 66.2295 L 378.1177 66.2295 ZM 358.9907 61.8955 C 357.8569 63.3872 356.4268 64.1353 354.6768 64.1353 C 353.1636 64.1353 351.9248 63.6235 350.9189 62.6196 C 349.916 61.5952 349.4238 60.3145 349.4238 58.7773 C 349.4238 57.2173 349.916 55.9165 350.896 54.8926 C 351.8799 53.8643 353.1177 53.3555 354.5918 53.3555 C 356.3208 53.3555 357.71 54.0786 358.7319 55.5532 L 360.377 53.8452 C 358.9907 51.9663 357.0459 51.0264 354.5479 51.0264 C 352.3066 51.0264 350.4707 51.7524 348.998 53.1846 C 347.5469 54.6143 346.8218 56.4736 346.8218 58.7773 C 346.8218 61.0425 347.5469 62.8975 349.0186 64.3262 C 350.4907 65.7583 352.3706 66.4653 354.6348 66.4653 C 357.1108 66.4653 359.0967 65.5254 360.5918 63.6455 L 358.9907 61.8955 ZM 331.002 53.5674 L 335.4409 53.5674 L 335.4409 66.2295 L 337.981 66.2295 L 337.981 53.5674 L 342.5498 53.5674 L 342.5498 51.2612 L 331.002 51.2612 L 331.002 53.5674 ZM 325.1479 66.2295 L 325.1479 63.9243 L 317.1626 63.9243 L 317.1626 59.7603 L 324.7817 59.7603 L 324.7817 57.4326 L 317.1626 57.4326 L 317.1626 53.5674 L 325.1479 53.5674 L 325.1479 51.2612 L 314.6196 51.2612 L 314.6196 66.2295 L 325.1479 66.2295 ZM 298.3828 64.2422 C 299.4067 65.7163 300.8169 66.4653 302.5918 66.4653 C 305.749 66.4653 307.48 64.4985 307.48 61.0825 L 307.48 51.2612 L 304.916 51.2612 L 304.916 61.3413 C 304.916 63.2192 304.064 64.1582 302.6938 64.1582 C 301.6519 64.1582 300.8169 63.5815 300.1997 62.4272 L 298.3828 64.2422 Z" fill="#000000"/>			<path d="M 331.4746 38.1563 L 341.9937 38.1563 C 340.2817 40.0332 338.7769 42.1304 337.5498 44.4414 C 337.4546 44.6211 337.5229 44.8452 337.7036 44.9414 C 337.8838 45.0361 338.1079 44.9692 338.2036 44.7871 C 339.5088 42.3301 341.125 40.1084 342.9868 38.1563 L 351.2656 38.1563 C 350.251 40.0503 349.3608 42.1694 348.6367 44.5054 C 348.5767 44.7002 348.6855 44.9072 348.8809 44.9673 C 349.0786 45.0313 349.2837 44.9194 349.3438 44.7231 C 350.0967 42.2925 351.0259 40.0913 352.0947 38.1563 L 364.1787 38.1563 L 364.1787 44.6152 C 364.1787 44.8193 364.3447 44.9844 364.5488 44.9844 C 364.7529 44.9844 364.9199 44.8193 364.9199 44.6152 L 364.9199 38.1563 L 377.0029 38.1563 C 378.0718 40.0923 379.001 42.2944 379.7559 44.7261 C 379.8047 44.8853 379.9507 44.9873 380.1089 44.9873 C 380.1436 44.9873 380.1816 44.9814 380.2168 44.9702 C 380.4126 44.9102 380.522 44.7021 380.4609 44.5073 C 379.7378 42.1704 378.8477 40.0513 377.832 38.1563 L 386.1108 38.1563 C 387.9727 40.1084 389.5898 42.3301 390.8945 44.7871 C 390.9619 44.9131 391.0898 44.9844 391.2227 44.9844 C 391.2808 44.9844 391.3408 44.9702 391.3945 44.9414 C 391.5757 44.8452 391.6445 44.6211 391.5488 44.4414 C 390.3208 42.1304 388.8169 40.0332 387.105 38.1563 L 396.6357 38.1563 C 396.8398 38.1563 397.0059 37.9912 397.0059 37.7871 C 397.0059 37.5825 396.8398 37.4185 396.6357 37.4185 L 386.4136 37.4185 C 380.748 31.6045 372.9209 28.1992 364.5488 28.1992 C 356.1768 28.1992 348.3496 31.6045 342.6836 37.4185 L 331.4746 37.4185 C 331.271 37.4185 331.105 37.5825 331.105 37.7871 C 331.105 37.9912 331.271 38.1563 331.4746 38.1563 L 331.4746 38.1563 ZM 352.5308 37.4185 C 355.6177 32.2104 359.7549 29.1265 364.1787 28.9614 L 364.1787 37.4185 L 352.5308 37.4185 ZM 364.9199 37.4185 L 364.9199 28.9614 C 369.3428 29.1265 373.48 32.2104 376.5669 37.4185 L 364.9199 37.4185 ZM 377.4238 37.4185 C 375.2368 33.6001 372.502 30.8203 369.48 29.3652 C 375.5088 30.3711 381.0337 33.1953 385.3589 37.4185 L 377.4238 37.4185 ZM 359.6177 29.3652 C 356.5957 30.8203 353.8608 33.6001 351.6738 37.4185 L 343.7388 37.4185 C 348.0649 33.1953 353.5889 30.3711 359.6177 29.3652 L 359.6177 29.3652 Z" fill="#ab5440"/>			<path d="M 396.6357 79.582 L 386.8999 79.582 C 388.6997 77.6489 390.272 75.4697 391.5488 73.0659 C 391.645 72.8857 391.5757 72.6621 391.395 72.5659 C 391.2148 72.4707 390.9917 72.5391 390.895 72.7188 C 389.5371 75.2769 387.8359 77.5737 385.876 79.582 L 377.7119 79.582 C 378.7788 77.6318 379.709 75.4307 380.4619 73.002 C 380.522 72.8071 380.4131 72.6001 380.2168 72.5391 C 380.0229 72.479 379.8149 72.5879 379.7549 72.7827 C 378.9697 75.3149 377.9917 77.5898 376.8677 79.582 L 364.9189 79.582 L 364.9189 72.8921 C 364.9189 72.687 364.7539 72.522 364.5498 72.522 C 364.3457 72.522 364.1797 72.687 364.1797 72.8921 L 364.1797 79.582 L 352.2319 79.582 C 351.1069 77.5898 350.1289 75.313 349.3438 72.7798 C 349.2837 72.584 349.0771 72.4727 348.8809 72.5361 C 348.686 72.5957 348.5771 72.8037 348.6367 72.999 C 349.3896 75.4287 350.3198 77.6309 351.3877 79.582 L 343.2227 79.582 C 341.2627 77.5737 339.563 75.2769 338.2041 72.7188 C 338.1069 72.5391 337.8848 72.4707 337.7031 72.5659 C 337.5229 72.6621 337.4541 72.8857 337.5498 73.0659 C 338.8271 75.4697 340.3999 77.6489 342.1997 79.582 L 331.4751 79.582 C 331.271 79.582 331.105 79.7471 331.105 79.9517 C 331.105 80.1558 331.271 80.3198 331.4751 80.3198 L 342.9209 80.3198 C 348.5679 85.9897 356.291 89.3057 364.5498 89.3057 C 372.8091 89.3057 380.5327 85.9897 386.1787 80.3198 L 396.6357 80.3198 C 396.8389 80.3198 397.0059 80.1558 397.0059 79.9517 C 397.0059 79.7471 396.8389 79.582 396.6357 79.582 L 396.6357 79.582 ZM 376.4307 80.3198 C 373.3589 85.3877 369.2788 88.3818 364.9189 88.5439 L 364.9189 80.3198 L 376.4307 80.3198 ZM 364.1797 80.3198 L 364.1797 88.5439 C 359.8208 88.3818 355.7407 85.3877 352.6689 80.3198 L 364.1797 80.3198 ZM 343.9761 80.3198 L 351.813 80.3198 C 353.9761 84.0171 356.6577 86.7148 359.6167 88.1411 C 353.6987 87.1528 348.2637 84.415 343.9761 80.3198 L 343.9761 80.3198 ZM 369.4829 88.1411 C 372.4409 86.7158 375.124 84.0161 377.2881 80.3198 L 385.124 80.3198 C 380.835 84.416 375.4009 87.1528 369.4829 88.1411 L 369.4829 88.1411 Z" fill="#ab5440"/>		</g>		<g>			<path d="M 316.5811 239.2231 L 319.8584 239.2231 L 322.3218 234.25 L 319.2241 234.25 L 316.5811 239.2231 ZM 326.2192 226.3745 L 323.1157 226.3745 L 320.5967 231.4834 L 323.6821 231.4868 L 326.2192 226.3745 ZM 330.1104 218.5015 L 327.0093 218.5015 L 324.4941 223.6079 L 327.5713 223.6123 L 330.1104 218.5015 ZM 333.9971 210.6289 L 330.9033 210.627 L 328.377 215.729 L 331.4805 215.7349 L 333.9971 210.6289 ZM 344.6138 210.6211 L 347.1665 215.729 L 350.2603 215.729 L 347.6973 210.6289 L 344.6138 210.6211 ZM 354.2163 223.6079 L 351.6553 218.5059 L 348.5566 218.5059 L 351.1118 223.6079 L 354.2163 223.6079 ZM 358.1587 231.4834 L 355.6016 226.3745 L 352.5186 226.3711 L 355.0781 231.4834 L 358.1587 231.4834 ZM 362.2051 239.2231 L 359.5503 234.25 L 356.459 234.2559 L 358.9458 239.1992 L 362.2051 239.2231 ZM 335.9717 200.375 L 332.2637 207.8569 L 335.3696 207.8569 L 339.2705 199.9482 L 343.2295 207.8569 L 346.3105 207.8643 L 342.873 201.0029 L 381.0986 239.2231 L 384.8638 239.2231 L 339.1011 193.4644 L 293.3457 239.2231 L 297.1177 239.2246 L 335.9717 200.375 ZM 287.3452 250.5361 L 289.5854 247.6094 L 329.6943 247.6094 L 337.6787 259.8105 C 337.9194 260.1777 338.3296 260.4009 338.7686 260.4009 C 338.7783 260.4009 338.7861 260.4009 338.7949 260.397 C 339.2441 260.3896 339.6553 260.1504 339.8867 259.7627 L 347.1343 247.6094 L 388.5249 247.6094 L 390.8818 250.5601 C 391.3291 251.123 392.1543 251.2095 392.7109 250.7632 C 393.2734 250.3169 393.3643 249.4956 392.916 248.9355 L 390.1689 245.4956 C 389.9224 245.1846 389.5479 245.0044 389.1523 245.0044 L 346.395 245.0044 C 345.9375 245.0044 345.5107 245.2471 345.2754 245.6411 L 338.7173 256.6406 L 331.4888 245.5952 C 331.248 245.228 330.8379 245.0044 330.3989 245.0044 L 288.9429 245.0044 C 288.5376 245.0044 288.1538 245.1943 287.9067 245.5171 L 285.2754 248.9561 C 284.8394 249.5269 284.9487 250.3442 285.52 250.7832 C 286.085 251.2173 286.9053 251.1157 287.3452 250.5361 ZM 286.2085 281.5859 L 298.1846 281.5859 L 298.1846 277.8496 L 286.2085 277.8496 L 286.2085 281.5859 ZM 275.3242 291.769 L 270.6846 277.8496 L 265.9077 277.8496 L 273.4189 297.458 L 277.2031 297.458 L 284.6597 277.8496 L 279.8813 277.8496 L 275.3242 291.769 ZM 309.7798 285.7485 C 307.1558 285.0303 305.6924 284.6714 305.6924 283.3457 C 305.6924 282.2686 306.5479 281.7163 308.0952 281.7163 C 310.4419 281.7163 313.0659 283.2905 313.3423 283.5947 L 315.3027 279.8379 C 313.5903 278.8169 311.022 277.6841 308.2329 277.6841 C 304.311 277.6841 300.9976 279.9214 300.9976 284.0635 C 300.9976 287.0186 302.6826 288.3721 306.3003 289.4766 C 309.0059 290.3052 311.022 290.6646 311.022 292.1279 C 311.022 293.0669 310.249 293.5913 308.6191 293.5913 C 305.6094 293.5913 302.5161 291.6855 302.1572 291.2993 L 300.1685 295.249 C 302.4888 296.7676 305.6646 297.6787 308.5366 297.6787 C 312.3203 297.6787 315.9106 296.1318 315.9106 291.6855 C 315.9106 288.0405 313.5352 286.7705 309.7798 285.7485 ZM 323.9761 293.6748 L 320.5786 282.959 L 316.0508 282.959 L 321.5459 297.458 C 321.1318 299.3076 320.5513 299.998 319.6133 299.998 C 319.1152 299.998 318.397 299.8887 317.5967 299.6396 L 317.5967 303.4229 C 318.397 303.7266 319.2266 303.8379 320.0273 303.8379 C 322.5674 303.8096 324.6392 302.2354 325.4395 299.8057 L 330.9912 282.959 L 326.8755 282.959 L 323.9761 293.6748 ZM 338.7524 288.5381 C 336.6812 288.0405 336.0195 287.7642 336.0195 286.9639 C 336.0195 286.1348 336.8198 285.7485 337.9243 285.7485 C 339.2505 285.7485 340.604 286.1899 342.3989 287.1846 L 344.1387 284.395 C 342.1226 283.3179 339.9409 282.6826 337.9243 282.6826 C 334.4722 282.6826 331.9316 284.644 331.9316 287.5986 C 331.9316 289.8081 333.3125 290.7471 337.2339 291.769 C 339.498 292.3486 340.2998 292.6528 340.2998 293.4258 C 340.2998 294.1992 339.582 294.6133 338.311 294.6133 C 336.6538 294.6133 334.8311 294.0054 332.9258 292.9009 L 331.186 295.8838 C 332.981 296.9883 336.0195 297.7344 338.4214 297.7344 C 342.1777 297.7344 344.5527 295.9111 344.5527 293.0391 C 344.5527 290.6362 343.0332 289.6147 338.7524 288.5381 ZM 353.1699 293.7021 C 352.4248 293.7021 351.8716 293.3154 351.8716 292.3486 L 351.8716 286.3008 L 354.8276 286.3008 L 354.8276 282.959 L 351.8716 282.959 L 351.8716 278.3472 L 347.4536 278.3472 L 347.4536 282.959 L 345.6035 282.959 L 345.6035 286.3008 L 347.4536 286.3008 L 347.4536 293.8677 C 347.4536 296.6846 349.3037 297.7344 351.4854 297.7344 C 353.0874 297.7344 354.7163 297.2095 355.9321 296.6846 L 355.1025 293.1772 C 354.5513 293.4258 353.8057 293.7021 353.1699 293.7021 ZM 392.9126 282.6826 C 390.6201 282.6826 388.7422 283.7046 387.6655 285.4995 C 387.2788 283.981 386.0356 282.6826 383.6611 282.6826 C 381.231 282.6826 379.3535 283.6494 378.2749 285.3896 L 378.2749 282.959 L 374.2988 282.959 L 374.2988 297.458 L 378.7178 297.458 L 378.7178 289.145 C 379.2422 287.626 380.5127 286.5767 381.6724 286.5767 C 382.8047 286.5767 383.5498 287.4053 383.5498 289.311 L 383.5498 297.458 L 387.9692 297.458 L 387.9692 289.145 C 388.4658 287.6543 389.7646 286.5767 390.9238 286.5767 C 392.0562 286.5767 392.8027 287.4053 392.8027 289.311 L 392.8027 297.458 L 397.2207 297.458 L 397.2207 288.1787 C 397.2207 285.7485 396.5854 282.6826 392.9126 282.6826 ZM 406.501 288.5381 C 404.4297 288.0405 403.7676 287.7642 403.7676 286.9639 C 403.7676 286.1348 404.5684 285.7485 405.6729 285.7485 C 406.999 285.7485 408.3525 286.1899 410.1475 287.1846 L 411.8872 284.395 C 409.8706 283.3179 407.6895 282.6826 405.6729 282.6826 C 402.2207 282.6826 399.6802 284.644 399.6802 287.5986 C 399.6802 289.8081 401.061 290.7471 404.9824 291.769 C 407.2466 292.3486 408.0483 292.6528 408.0483 293.4258 C 408.0483 294.1992 407.3301 294.6133 406.0596 294.6133 C 404.4023 294.6133 402.5796 294.0054 400.6743 292.9009 L 398.9346 295.8838 C 400.7295 296.9883 403.7676 297.7344 406.1694 297.7344 C 409.9258 297.7344 412.3013 295.9111 412.3013 293.0391 C 412.3013 290.6362 410.7813 289.6147 406.501 288.5381 ZM 294.4834 291.0264 C 294.4834 293.0967 293.3462 294.0156 292.1963 294.0156 C 291.0464 294.0156 289.9092 293.0967 289.9092 291.0264 L 289.9092 283.6924 L 286.2085 283.6924 L 286.2085 291.8003 C 286.2085 295.1074 288.8892 297.7881 292.1963 297.7881 C 295.5034 297.7881 298.1846 295.1074 298.1846 291.8003 L 298.1846 283.6924 L 294.4834 283.6924 L 294.4834 291.0264 Z" fill="#ffffff"/>		</g>		<path d="M 372.3096 290.167 C 372.3096 286.2178 369.5205 282.6826 364.5767 282.6826 C 359.6333 282.6826 356.7891 286.1899 356.7891 290.3604 C 356.7891 294.2817 359.6885 297.7344 364.5767 297.7344 C 367.918 297.7344 370.4033 296.1318 371.5366 293.8677 L 367.7803 292.8184 C 367.3662 293.8677 366.0127 294.5586 364.7144 294.5586 C 363.1133 294.5586 361.6221 293.5088 361.4834 291.5757 L 372.1982 291.5757 C 372.2549 291.2168 372.3096 290.6919 372.3096 290.167 ZM 361.4009 288.8413 C 361.5659 287.0464 362.8091 285.8584 364.522 285.8584 C 366.2065 285.8584 367.4761 287.0186 367.6426 288.8413 L 361.4009 288.8413 Z" fill="#ffffff"/>	</g></svg>