<?xml version="1.0" encoding="utf-8"?>
<!-- Generator: Adobe Illustrator 19.1.0, SVG Export Plug-In . SVG Version: 6.00 Build 0)  -->
<!DOCTYPE svg PUBLIC "-//W3C//DTD SVG 1.1//EN" "http://www.w3.org/Graphics/SVG/1.1/DTD/svg11.dtd">
<svg version="1.1" id="Layer_1" xmlns="http://www.w3.org/2000/svg" xmlns:xlink="http://www.w3.org/1999/xlink" x="0px" y="0px"
	 viewBox="0 0 445 338" style="enable-background:new 0 0 445 338;" xml:space="preserve">
<style type="text/css">
	.st0{fill:none;}
	.st1{fill:#FFFFFF;}
	.st2{fill:#1C75BC;}
	.st3{fill:#13254B;}
	.st4{fill:#BCBEC0;}
	.st5{fill:#A45F4F;}
</style>
<rect x="0" class="st0" width="445" height="338"/>
<g>
	<g>
		<path class="st1" d="M77.7,70.3h4.9l3.7-7.4h-4.6L77.7,70.3z M92.1,51.1h-4.6l-3.8,7.6l4.6,0L92.1,51.1z M97.9,39.4h-4.6L89.5,47
			l4.6,0L97.9,39.4z M103.7,27.6l-4.6,0l-3.8,7.6l4.6,0L103.7,27.6z M119.6,27.6l3.8,7.6h4.6l-3.8-7.6L119.6,27.6z M133.9,47
			l-3.8-7.6h-4.6l3.8,7.6H133.9z M139.8,58.8l-3.8-7.6l-4.6,0l3.8,7.6H139.8z M145.8,70.3l-4-7.4l-4.6,0l3.7,7.4L145.8,70.3z
			 M106.7,12.3l-5.5,11.2h4.6l5.8-11.8l5.9,11.8l4.6,0L117,13.2l57.1,57.1h5.6L111.3,2L43,70.3l5.6,0L106.7,12.3z M34,87.2l3.3-4.4
			h59.9l11.9,18.2c0.4,0.5,1,0.9,1.6,0.9c0,0,0,0,0,0c0.7,0,1.3-0.4,1.6-0.9l10.8-18.2h61.8l3.5,4.4c0.7,0.8,1.9,1,2.7,0.3
			c0.8-0.7,1-1.9,0.3-2.7l-4.1-5.1c-0.4-0.5-0.9-0.7-1.5-0.7h-63.9c-0.7,0-1.3,0.4-1.7,1l-9.8,16.4L100,79.8c-0.4-0.5-1-0.9-1.6-0.9
			H36.4c-0.6,0-1.2,0.3-1.5,0.8l-3.9,5.1c-0.7,0.9-0.5,2.1,0.4,2.7C32.1,88.2,33.4,88.1,34,87.2z M32.3,133.6h17.9V128H32.3V133.6z
			 M16.1,148.8L9.1,128H2l11.2,29.3h5.7L30,128h-7.1L16.1,148.8z M67.5,139.8c-3.9-1.1-6.1-1.6-6.1-3.6c0-1.6,1.3-2.4,3.6-2.4
			c3.5,0,7.4,2.4,7.8,2.8l2.9-5.6c-2.6-1.5-6.4-3.2-10.6-3.2c-5.9,0-10.8,3.3-10.8,9.5c0,4.4,2.5,6.4,7.9,8.1c4,1.2,7.1,1.8,7.1,4
			c0,1.4-1.2,2.2-3.6,2.2c-4.5,0-9.1-2.8-9.7-3.4l-3,5.9c3.5,2.3,8.2,3.6,12.5,3.6c5.7,0,11-2.3,11-9
			C76.7,143.2,73.1,141.3,67.5,139.8z M88.7,151.6l-5.1-16h-6.8l8.2,21.7c-0.6,2.8-1.5,3.8-2.9,3.8c-0.7,0-1.8-0.2-3-0.5v5.7
			c1.2,0.5,2.4,0.6,3.6,0.6c3.8,0,6.9-2.4,8.1-6l8.3-25.2h-6.1L88.7,151.6z M110.8,144c-3.1-0.7-4.1-1.2-4.1-2.4
			c0-1.2,1.2-1.8,2.8-1.8c2,0,4,0.7,6.7,2.1l2.6-4.2c-3-1.6-6.3-2.6-9.3-2.6c-5.2,0-9,2.9-9,7.3c0,3.3,2.1,4.7,7.9,6.2
			c3.4,0.9,4.6,1.3,4.6,2.5c0,1.2-1.1,1.8-3,1.8c-2.5,0-5.2-0.9-8-2.6l-2.6,4.5c2.7,1.6,7.2,2.8,10.8,2.8c5.6,0,9.2-2.7,9.2-7
			C119.5,147.1,117.2,145.6,110.8,144z M132.3,151.7c-1.1,0-1.9-0.6-1.9-2v-9h4.4v-5h-4.4v-6.9h-6.6v6.9H121v5h2.8v11.3
			c0,4.2,2.8,5.8,6,5.8c2.4,0,4.8-0.8,6.6-1.6l-1.2-5.2C134.4,151.3,133.3,151.7,132.3,151.7z M149.4,135.2
			c-7.4,0-11.6,5.2-11.6,11.5c0,5.9,4.3,11,11.6,11c5,0,8.7-2.4,10.4-5.8l-5.6-1.6c-0.6,1.6-2.6,2.6-4.6,2.6c-2.4,0-4.6-1.6-4.8-4.5
			h16c0.1-0.5,0.2-1.3,0.2-2.1C160.9,140.5,156.8,135.2,149.4,135.2z M144.6,144.4c0.2-2.7,2.1-4.5,4.7-4.5c2.5,0,4.4,1.7,4.7,4.5
			H144.6z M191.7,135.2c-3.4,0-6.2,1.5-7.8,4.2c-0.6-2.3-2.4-4.2-6-4.2c-3.6,0-6.4,1.4-8,4v-3.6h-5.9v21.7h6.6v-12.4
			c0.8-2.3,2.7-3.8,4.4-3.8c1.7,0,2.8,1.2,2.8,4.1v12.2h6.6v-12.4c0.7-2.2,2.7-3.8,4.4-3.8c1.7,0,2.8,1.2,2.8,4.1v12.2h6.6v-13.9
			C198.1,139.8,197.2,135.2,191.7,135.2z M212,144c-3.1-0.7-4.1-1.2-4.1-2.4c0-1.2,1.2-1.8,2.8-1.8c2,0,4,0.7,6.7,2.1l2.6-4.2
			c-3-1.6-6.3-2.6-9.3-2.6c-5.2,0-9,2.9-9,7.3c0,3.3,2.1,4.7,7.9,6.2c3.4,0.9,4.6,1.3,4.6,2.5c0,1.2-1.1,1.8-3,1.8
			c-2.5,0-5.2-0.9-8-2.6l-2.6,4.5c2.7,1.6,7.2,2.8,10.8,2.8c5.6,0,9.2-2.7,9.2-7C220.7,147.1,218.4,145.6,212,144z M44.7,147.7
			c0,3.1-1.7,4.5-3.4,4.5c-1.7,0-3.4-1.4-3.4-4.5v-11h-5.5v12.1c0,4.9,4,8.9,8.9,8.9c4.9,0,8.9-4,8.9-8.9v-12.1h-5.5V147.7z"/>
	</g>
</g>
<g>
	<polygon class="st2" points="254.4,146.6 244.4,136 246.8,133.7 254.4,141.8 262.1,134.1 264.5,136.5 	"/>
</g>
<g>
	<g>
		<g>
			<path class="st3" d="M88.8,239.2h3.3l2.5-5h-3.1L88.8,239.2z M98.4,226.4h-3.1l-2.5,5.1l3.1,0L98.4,226.4z M102.3,218.5h-3.1
				l-2.5,5.1l3.1,0L102.3,218.5z M106.2,210.6l-3.1,0l-2.5,5.1l3.1,0L106.2,210.6z M116.8,210.6l2.6,5.1h3.1l-2.6-5.1L116.8,210.6z
				 M126.4,223.6l-2.6-5.1h-3.1l2.6,5.1H126.4z M130.4,231.5l-2.6-5.1l-3.1,0l2.6,5.1H130.4z M134.4,239.2l-2.7-5l-3.1,0l2.5,4.9
				L134.4,239.2z M108.2,200.4l-3.7,7.5h3.1l3.9-7.9l4,7.9l3.1,0l-3.4-6.9l38.2,38.2h3.8l-45.8-45.8l-45.8,45.8l3.8,0L108.2,200.4z
				 M59.6,250.5l2.2-2.9h40.1l8,12.2c0.2,0.4,0.7,0.6,1.1,0.6c0,0,0,0,0,0c0.4,0,0.9-0.2,1.1-0.6l7.2-12.2h41.4l2.4,3
				c0.4,0.6,1.3,0.6,1.8,0.2c0.6-0.4,0.7-1.3,0.2-1.8l-2.7-3.4c-0.2-0.3-0.6-0.5-1-0.5h-42.8c-0.5,0-0.9,0.2-1.1,0.6l-6.6,11
				l-7.2-11c-0.2-0.4-0.7-0.6-1.1-0.6H61.2c-0.4,0-0.8,0.2-1,0.5l-2.6,3.4c-0.4,0.6-0.3,1.4,0.2,1.8
				C58.3,251.2,59.1,251.1,59.6,250.5z M58.4,281.6h12v-3.7h-12V281.6z M47.6,291.8l-4.6-13.9h-4.8l7.5,19.6h3.8l7.5-19.6h-4.8
				L47.6,291.8z M82,285.7c-2.6-0.7-4.1-1.1-4.1-2.4c0-1.1,0.9-1.6,2.4-1.6c2.3,0,5,1.6,5.2,1.9l2-3.8c-1.7-1-4.3-2.2-7.1-2.2
				c-3.9,0-7.2,2.2-7.2,6.4c0,3,1.7,4.3,5.3,5.4c2.7,0.8,4.7,1.2,4.7,2.7c0,0.9-0.8,1.5-2.4,1.5c-3,0-6.1-1.9-6.5-2.3l-2,3.9
				c2.3,1.5,5.5,2.4,8.4,2.4c3.8,0,7.4-1.5,7.4-6C88.1,288,85.8,286.8,82,285.7z M96.2,293.7L92.8,283h-4.5l5.5,14.5
				c-0.4,1.9-1,2.5-1.9,2.5c-0.5,0-1.2-0.1-2-0.4v3.8c0.8,0.3,1.6,0.4,2.4,0.4c2.5,0,4.6-1.6,5.4-4l5.6-16.8h-4.1L96.2,293.7z
				 M111,288.5c-2.1-0.5-2.7-0.8-2.7-1.6c0-0.8,0.8-1.2,1.9-1.2c1.3,0,2.7,0.4,4.5,1.4l1.7-2.8c-2-1.1-4.2-1.7-6.2-1.7
				c-3.5,0-6,2-6,4.9c0,2.2,1.4,3.1,5.3,4.2c2.3,0.6,3.1,0.9,3.1,1.7c0,0.8-0.7,1.2-2,1.2c-1.7,0-3.5-0.6-5.4-1.7l-1.7,3
				c1.8,1.1,4.8,1.9,7.2,1.9c3.8,0,6.1-1.8,6.1-4.7C116.8,290.6,115.3,289.6,111,288.5z M125.4,293.7c-0.7,0-1.3-0.4-1.3-1.4v-6h3
				V283h-3v-4.6h-4.4v4.6h-1.9v3.3h1.9v7.6c0,2.8,1.9,3.9,4,3.9c1.6,0,3.2-0.5,4.4-1l-0.8-3.5C126.8,293.4,126,293.7,125.4,293.7z
				 M136.8,282.7c-4.9,0-7.8,3.5-7.8,7.7c0,3.9,2.9,7.4,7.8,7.4c3.3,0,5.8-1.6,7-3.9l-3.8-1c-0.4,1-1.8,1.7-3.1,1.7
				c-1.6,0-3.1-1-3.2-3h10.7c0.1-0.4,0.1-0.9,0.1-1.4C144.5,286.2,141.7,282.7,136.8,282.7z M133.6,288.8c0.2-1.8,1.4-3,3.1-3
				c1.7,0,3,1.2,3.1,3H133.6z M165.1,282.7c-2.3,0-4.2,1-5.2,2.8c-0.4-1.5-1.6-2.8-4-2.8c-2.4,0-4.3,1-5.4,2.7V283h-4v14.5h4.4v-8.3
				c0.5-1.5,1.8-2.6,3-2.6c1.1,0,1.9,0.8,1.9,2.7v8.1h4.4v-8.3c0.5-1.5,1.8-2.6,3-2.6c1.1,0,1.9,0.8,1.9,2.7v8.1h4.4v-9.3
				C169.4,285.7,168.8,282.7,165.1,282.7z M178.7,288.5c-2.1-0.5-2.7-0.8-2.7-1.6c0-0.8,0.8-1.2,1.9-1.2c1.3,0,2.7,0.4,4.5,1.4
				l1.7-2.8c-2-1.1-4.2-1.7-6.2-1.7c-3.5,0-6,2-6,4.9c0,2.2,1.4,3.1,5.3,4.2c2.3,0.6,3.1,0.9,3.1,1.7c0,0.8-0.7,1.2-2,1.2
				c-1.7,0-3.5-0.6-5.4-1.7l-1.7,3c1.8,1.1,4.8,1.9,7.2,1.9c3.8,0,6.1-1.8,6.1-4.7C184.5,290.6,183,289.6,178.7,288.5z M66.7,291
				c0,2.1-1.1,3-2.3,3c-1.2,0-2.3-0.9-2.3-3v-7.3h-3.7v8.1c0,3.3,2.7,6,6,6c3.3,0,6-2.7,6-6v-8.1h-3.7V291z"/>
		</g>
	</g>
</g>
<g>
	<polygon class="st4" points="244.7,52.5 240.5,48 262,27.6 241.4,7 245.8,2.7 270.8,27.7 	"/>
</g>
<g>
	<polygon class="st3" points="251.3,91.8 249.3,89.7 255.4,83.9 249.5,78 251.6,75.9 259.6,83.9 	"/>
</g>
<g>
	<path d="M419.2,53.6h4.4v12.7h2.5V53.6h4.6v-2.3h-11.5V53.6z M406.1,59.8h6.8v-2.3h-6.8v-3.9h7.3v-2.3h-9.8v15h2.5V59.8z
		 M392.7,60.7h-4.5l2.3-6L392.7,60.7z M389.2,51.3l-5.9,15h2.7l1.2-3.2h6.4l1.3,3.2h2.7l-5.8-15H389.2z M371.7,53.6
		c2.3,0,3.5,0.9,3.5,2.6c0,1.8-1.2,2.6-3.5,2.6h-2.8v-5.2H371.7z M378.1,66.2l-3.4-5.5c1.9-0.7,3.1-2.3,3.1-4.5
		c0-3.1-2.2-4.9-5.7-4.9h-5.7v15h2.5v-5.1h3.1l3.1,5.1H378.1z M359,61.9c-1.1,1.5-2.6,2.2-4.3,2.2c-1.5,0-2.8-0.5-3.8-1.5
		c-1-1-1.5-2.3-1.5-3.8c0-1.6,0.5-2.9,1.5-3.9c1-1,2.2-1.5,3.7-1.5c1.7,0,3.1,0.7,4.1,2.2l1.6-1.7C359,52,357,51,354.5,51
		c-2.2,0-4.1,0.7-5.5,2.2c-1.5,1.4-2.2,3.3-2.2,5.6c0,2.3,0.7,4.1,2.2,5.5c1.5,1.4,3.4,2.1,5.6,2.1c2.5,0,4.5-0.9,6-2.8L359,61.9z
		 M331,53.6h4.4v12.7h2.5V53.6h4.6v-2.3H331V53.6z M325.1,66.2v-2.3h-8v-4.2h7.6v-2.3h-7.6v-3.9h8v-2.3h-10.5v15H325.1z M298.4,64.2
		c1,1.5,2.4,2.2,4.2,2.2c3.2,0,4.9-2,4.9-5.4v-9.8h-2.6v10.1c0,1.9-0.9,2.8-2.2,2.8c-1,0-1.9-0.6-2.5-1.7L298.4,64.2z"/>
	<path class="st5" d="M331.5,38.2H342c-1.7,1.9-3.2,4-4.4,6.3c-0.1,0.2,0,0.4,0.2,0.5c0.2,0.1,0.4,0,0.5-0.2
		c1.3-2.5,2.9-4.7,4.8-6.6h8.3c-1,1.9-1.9,4-2.6,6.3c-0.1,0.2,0,0.4,0.2,0.5c0.2,0.1,0.4,0,0.5-0.2c0.8-2.4,1.7-4.6,2.8-6.6h12.1
		v6.5c0,0.2,0.2,0.4,0.4,0.4c0.2,0,0.4-0.2,0.4-0.4v-6.5H377c1.1,1.9,2,4.1,2.8,6.6c0,0.2,0.2,0.3,0.4,0.3c0,0,0.1,0,0.1,0
		c0.2-0.1,0.3-0.3,0.2-0.5c-0.7-2.3-1.6-4.5-2.6-6.4h8.3c1.9,2,3.5,4.2,4.8,6.6c0.1,0.1,0.2,0.2,0.3,0.2c0.1,0,0.1,0,0.2,0
		c0.2-0.1,0.2-0.3,0.2-0.5c-1.2-2.3-2.7-4.4-4.4-6.3h9.5c0.2,0,0.4-0.2,0.4-0.4c0-0.2-0.2-0.4-0.4-0.4h-10.2
		c-5.7-5.8-13.5-9.2-21.9-9.2c-8.4,0-16.2,3.4-21.9,9.2h-11.2c-0.2,0-0.4,0.2-0.4,0.4C331.1,38,331.3,38.2,331.5,38.2 M352.5,37.4
		c3.1-5.2,7.2-8.3,11.6-8.5v8.5H352.5z M364.9,37.4V29c4.4,0.2,8.6,3.2,11.6,8.5H364.9z M377.4,37.4c-2.2-3.8-4.9-6.6-7.9-8.1
		c6,1,11.6,3.8,15.9,8.1H377.4z M359.6,29.4c-3,1.5-5.8,4.2-7.9,8.1h-7.9C348.1,33.2,353.6,30.4,359.6,29.4"/>
	<path class="st5" d="M396.6,79.6h-9.7c1.8-1.9,3.4-4.1,4.6-6.5c0.1-0.2,0-0.4-0.2-0.5c-0.2-0.1-0.4,0-0.5,0.2
		c-1.4,2.6-3.1,4.9-5,6.9h-8.2c1.1-2,2-4.2,2.8-6.6c0.1-0.2,0-0.4-0.2-0.5c-0.2-0.1-0.4,0-0.5,0.2c-0.8,2.5-1.8,4.8-2.9,6.8h-11.9
		v-6.7c0-0.2-0.2-0.4-0.4-0.4c-0.2,0-0.4,0.2-0.4,0.4v6.7h-11.9c-1.1-2-2.1-4.3-2.9-6.8c-0.1-0.2-0.3-0.3-0.5-0.2
		c-0.2,0.1-0.3,0.3-0.2,0.5c0.8,2.4,1.7,4.6,2.8,6.6h-8.2c-2-2-3.7-4.3-5-6.9c-0.1-0.2-0.3-0.2-0.5-0.2c-0.2,0.1-0.2,0.3-0.2,0.5
		c1.3,2.4,2.9,4.6,4.6,6.5h-10.7c-0.2,0-0.4,0.2-0.4,0.4c0,0.2,0.2,0.4,0.4,0.4h11.4c5.6,5.7,13.4,9,21.6,9s16-3.3,21.6-9h10.5
		c0.2,0,0.4-0.2,0.4-0.4C397,79.7,396.8,79.6,396.6,79.6 M376.4,80.3c-3.1,5.1-7.2,8.1-11.5,8.2v-8.2H376.4z M364.2,80.3v8.2
		c-4.4-0.2-8.4-3.2-11.5-8.2H364.2z M344,80.3h7.8c2.2,3.7,4.8,6.4,7.8,7.8C353.7,87.2,348.3,84.4,344,80.3 M369.5,88.1
		c3-1.4,5.6-4.1,7.8-7.8h7.8C380.8,84.4,375.4,87.2,369.5,88.1"/>
</g>
<g>
	<g>
		<g>
			<path class="st1" d="M316.6,239.2h3.3l2.5-5h-3.1L316.6,239.2z M326.2,226.4h-3.1l-2.5,5.1l3.1,0L326.2,226.4z M330.1,218.5H327
				l-2.5,5.1l3.1,0L330.1,218.5z M334,210.6l-3.1,0l-2.5,5.1l3.1,0L334,210.6z M344.6,210.6l2.6,5.1h3.1l-2.6-5.1L344.6,210.6z
				 M354.2,223.6l-2.6-5.1h-3.1l2.6,5.1H354.2z M358.2,231.5l-2.6-5.1l-3.1,0l2.6,5.1H358.2z M362.2,239.2l-2.7-5l-3.1,0l2.5,4.9
				L362.2,239.2z M336,200.4l-3.7,7.5h3.1l3.9-7.9l4,7.9l3.1,0l-3.4-6.9l38.2,38.2h3.8l-45.8-45.8l-45.8,45.8l3.8,0L336,200.4z
				 M287.3,250.5l2.2-2.9h40.1l8,12.2c0.2,0.4,0.7,0.6,1.1,0.6c0,0,0,0,0,0c0.4,0,0.9-0.2,1.1-0.6l7.2-12.2h41.4l2.4,3
				c0.4,0.6,1.3,0.6,1.8,0.2c0.6-0.4,0.7-1.3,0.2-1.8l-2.7-3.4c-0.2-0.3-0.6-0.5-1-0.5h-42.8c-0.5,0-0.9,0.2-1.1,0.6l-6.6,11
				l-7.2-11c-0.2-0.4-0.7-0.6-1.1-0.6h-41.5c-0.4,0-0.8,0.2-1,0.5l-2.6,3.4c-0.4,0.6-0.3,1.4,0.2,1.8
				C286.1,251.2,286.9,251.1,287.3,250.5z M286.2,281.6h12v-3.7h-12V281.6z M275.3,291.8l-4.6-13.9h-4.8l7.5,19.6h3.8l7.5-19.6h-4.8
				L275.3,291.8z M309.8,285.7c-2.6-0.7-4.1-1.1-4.1-2.4c0-1.1,0.9-1.6,2.4-1.6c2.3,0,5,1.6,5.2,1.9l2-3.8c-1.7-1-4.3-2.2-7.1-2.2
				c-3.9,0-7.2,2.2-7.2,6.4c0,3,1.7,4.3,5.3,5.4c2.7,0.8,4.7,1.2,4.7,2.7c0,0.9-0.8,1.5-2.4,1.5c-3,0-6.1-1.9-6.5-2.3l-2,3.9
				c2.3,1.5,5.5,2.4,8.4,2.4c3.8,0,7.4-1.5,7.4-6C315.9,288,313.5,286.8,309.8,285.7z M324,293.7l-3.4-10.7h-4.5l5.5,14.5
				c-0.4,1.9-1,2.5-1.9,2.5c-0.5,0-1.2-0.1-2-0.4v3.8c0.8,0.3,1.6,0.4,2.4,0.4c2.5,0,4.6-1.6,5.4-4L331,283h-4.1L324,293.7z
				 M338.8,288.5c-2.1-0.5-2.7-0.8-2.7-1.6c0-0.8,0.8-1.2,1.9-1.2c1.3,0,2.7,0.4,4.5,1.4l1.7-2.8c-2-1.1-4.2-1.7-6.2-1.7
				c-3.5,0-6,2-6,4.9c0,2.2,1.4,3.1,5.3,4.2c2.3,0.6,3.1,0.9,3.1,1.7c0,0.8-0.7,1.2-2,1.2c-1.7,0-3.5-0.6-5.4-1.7l-1.7,3
				c1.8,1.1,4.8,1.9,7.2,1.9c3.8,0,6.1-1.8,6.1-4.7C344.6,290.6,343,289.6,338.8,288.5z M353.2,293.7c-0.7,0-1.3-0.4-1.3-1.4v-6h3
				V283h-3v-4.6h-4.4v4.6h-1.9v3.3h1.9v7.6c0,2.8,1.9,3.9,4,3.9c1.6,0,3.2-0.5,4.4-1l-0.8-3.5C354.6,293.4,353.8,293.7,353.2,293.7z
				 M364.6,282.7c-4.9,0-7.8,3.5-7.8,7.7c0,3.9,2.9,7.4,7.8,7.4c3.3,0,5.8-1.6,7-3.9l-3.8-1c-0.4,1-1.8,1.7-3.1,1.7
				c-1.6,0-3.1-1-3.2-3h10.7c0.1-0.4,0.1-0.9,0.1-1.4C372.3,286.2,369.5,282.7,364.6,282.7z M361.4,288.8c0.2-1.8,1.4-3,3.1-3
				c1.7,0,3,1.2,3.1,3H361.4z M392.9,282.7c-2.3,0-4.2,1-5.2,2.8c-0.4-1.5-1.6-2.8-4-2.8c-2.4,0-4.3,1-5.4,2.7V283h-4v14.5h4.4v-8.3
				c0.5-1.5,1.8-2.6,3-2.6c1.1,0,1.9,0.8,1.9,2.7v8.1h4.4v-8.3c0.5-1.5,1.8-2.6,3-2.6c1.1,0,1.9,0.8,1.9,2.7v8.1h4.4v-9.3
				C397.2,285.7,396.6,282.7,392.9,282.7z M406.5,288.5c-2.1-0.5-2.7-0.8-2.7-1.6c0-0.8,0.8-1.2,1.9-1.2c1.3,0,2.7,0.4,4.5,1.4
				l1.7-2.8c-2-1.1-4.2-1.7-6.2-1.7c-3.5,0-6,2-6,4.9c0,2.2,1.4,3.1,5.3,4.2c2.3,0.6,3.1,0.9,3.1,1.7c0,0.8-0.7,1.2-2,1.2
				c-1.7,0-3.5-0.6-5.4-1.7l-1.7,3c1.8,1.1,4.8,1.9,7.2,1.9c3.8,0,6.1-1.8,6.1-4.7C412.3,290.6,410.8,289.6,406.5,288.5z M294.5,291
				c0,2.1-1.1,3-2.3,3c-1.2,0-2.3-0.9-2.3-3v-7.3h-3.7v8.1c0,3.3,2.7,6,6,6c3.3,0,6-2.7,6-6v-8.1h-3.7V291z"/>
		</g>
	</g>
</g>
</svg>
